<svg id="Capa_1" enable-background="new 0 0 512.024 512.024" height="512" viewBox="0 0 512.024 512.024" width="512" xmlns="http://www.w3.org/2000/svg"><g><g><path fill="#ffffff" d="m475.305 115.781c-7.036-28.192-20.178-52.062-39.062-70.945-18.883-18.884-42.753-32.027-70.945-39.062-25.8-6.44-54.013-7.498-83.853-3.147-58.6 8.544-115.579 36.814-156.329 77.564-13.693 13.692-25.034 28.425-33.89 43.892l265.77 265.77c15.467-8.856 30.2-20.198 43.892-33.89 40.75-40.75 69.021-97.729 77.564-156.329 4.35-29.841 3.292-58.053-3.147-83.853z"/><path fill="#ffffff" d="m77.842 153.126c-4.646 13.105-7.622 26.569-8.831 40.238-3.388 38.286 6.864 77.594 29.646 113.673.594.94 1.29 1.812 2.077 2.598l-86.077 86.077c-19.526 19.526-19.527 51.185 0 70.711 19.526 19.526 51.185 19.526 70.711 0l86.077-86.077c.786.786 1.657 1.483 2.598 2.076 31.576 19.939 65.622 30.279 99.295 30.279 4.802 0 9.599-.211 14.378-.634 13.669-1.209 27.133-4.186 40.238-8.831z"/></g><g><path fill="#ffffff" d="m447.012 512.024c-35.841 0-65-29.159-65-65s29.159-65 65-65 65 29.159 65 65-29.159 65-65 65z"/></g></g></svg>