<svg height="511pt" viewBox="-56 0 511 511.99951" width="511pt" xmlns="http://www.w3.org/2000/svg"><path fill="#919191" d="m116.097656 418.613281v-179.460937c0-16.839844 11.535156-30.03125 26.261719-30.03125h71.273437v-20.21875c0-4.582032-.6875-8.996094-1.953124-13.144532h-209.226563c-1.265625 4.148438-1.953125 8.5625-1.953125 13.144532v280.707031c0 23.375 20.660156 42.390625 46.058594 42.390625h121.007812c25.402344 0 46.066406-19.015625 46.066406-42.390625v-20.972656h-71.273437c-14.726563 0-26.261719-13.1875-26.261719-30.023438zm0 0"/><path fill="#919191" d="m146.097656 239.152344v179.460937c0 .007813 67.535156.023438 67.535156.023438v-179.515625s-67.535156.019531-67.535156.03125zm0 0"/><path fill="#919191" d="m28.371094 104.5h157.390625v41.257812h-157.390625zm0 0"/><path fill="#919191" d="m167.261719 44.449219c0-14.5625-9.839844-25.972657-22.398438-25.972657h-75.601562c-12.558594 0-22.390625 11.410157-22.390625 25.972657v30.050781h120.390625zm0 0"/><path fill="#919191" d="m387.417969 29.773438-19.695313 3.472656c-8.160156 1.441406-15.9375-4.007813-17.378906-12.164063-1.4375-8.160156 4.011719-15.941406 12.167969-17.378906l19.695312-3.472656c8.160157-1.4375 15.9375 4.007812 17.378907 12.167969 1.4375 8.15625-4.007813 15.9375-12.167969 17.375zm-68.9375 12.15625-19.695313 3.472656c-8.15625 1.4375-15.9375-4.007813-17.375-12.167969-1.441406-8.15625 4.007813-15.9375 12.164063-17.375l19.699219-3.472656c8.15625-1.441407 15.9375 4.007812 17.375 12.164062 1.4375 8.160157-4.007813 15.941407-12.167969 17.378907zm-68.9375 12.15625-19.695313 3.472656c-8.15625 1.4375-15.9375-4.011719-17.375-12.167969-1.441406-8.15625 4.007813-15.9375 12.167969-17.378906l19.695313-3.472657c8.15625-1.4375 15.9375 4.011719 17.375 12.167969 1.441406 8.160157-4.007813 15.941407-12.167969 17.378907zm0 0"/><path fill="#919191" d="m399.585938 118.382812c-1.4375 8.160157-9.21875 13.605469-17.378907 12.167969l-19.695312-3.472656c-8.15625-1.441406-13.605469-9.21875-12.164063-17.378906 1.4375-8.15625 9.21875-13.605469 17.375-12.164063l19.695313 3.472656c8.160156 1.4375 13.605469 9.21875 12.167969 17.375zm-68.9375-12.15625c-1.4375 8.160157-9.21875 13.609376-17.375 12.167969l-19.699219-3.472656c-8.15625-1.4375-13.605469-9.21875-12.164063-17.375 1.4375-8.160156 9.21875-13.605469 17.375-12.167969l19.695313 3.472656c8.160156 1.4375 13.605469 9.21875 12.167969 17.375zm-68.9375-12.152343c-1.4375 8.15625-9.21875 13.605469-17.375 12.164062l-19.695313-3.472656c-8.160156-1.4375-13.605469-9.21875-12.167969-17.375 1.4375-8.160156 9.21875-13.605469 17.378906-12.167969l19.695313 3.472656c8.15625 1.4375 13.605469 9.21875 12.164063 17.378907zm0 0"/></svg>