<?xml version="1.0" encoding="iso-8859-1"?>
<!-- Generator: Adobe Illustrator 18.0.0, SVG Export Plug-In . SVG Version: 6.00 Build 0)  -->
<!DOCTYPE svg PUBLIC "-//W3C//DTD SVG 1.1//EN" "http://www.w3.org/Graphics/SVG/1.1/DTD/svg11.dtd">
<svg version="1.1" id="Capa_1" xmlns="http://www.w3.org/2000/svg" xmlns:xlink="http://www.w3.org/1999/xlink" x="0px" y="0px"
	 viewBox="0 0 250 250" style="enable-background:new 0 0 250 250;" xml:space="preserve">
<path fill="#919191" d="M250,70.858H138.982v-5.602h-8.375v-18.24h-11.215v18.24h-8.375v5.602H0v132.125h250V70.858z M96.213,89.981h21.266v21.266
	H96.213V89.981z M96.213,126.288h21.266v21.266H96.213V126.288z M59.906,89.981h21.266v21.266H59.906V89.981z M59.906,126.288
	h21.266v21.266H59.906V126.288z M44.864,183.86H23.6v-21.266h21.265V183.86z M44.864,147.553H23.6v-21.266h21.265V147.553z
	 M44.864,111.247H23.6V89.981h21.265V111.247z M153.787,183.86h-93.88v-21.266h93.88V183.86z M153.787,147.553h-21.268v-21.266
	h21.268V147.553z M153.787,111.247h-21.268V89.981h21.268V111.247z M190.091,183.86h-21.266v-21.266h21.266V183.86z
	 M190.091,147.553h-21.266v-21.266h21.266V147.553z M190.091,111.247h-21.266V89.981h21.266V111.247z M226.4,183.86h-21.266v-21.266
	H226.4V183.86z M226.4,147.553h-21.266v-21.266H226.4V147.553z M226.4,111.247h-21.266V89.981H226.4V111.247z"/>
<g>
</g>
<g>
</g>
<g>
</g>
<g>
</g>
<g>
</g>
<g>
</g>
<g>
</g>
<g>
</g>
<g>
</g>
<g>
</g>
<g>
</g>
<g>
</g>
<g>
</g>
<g>
</g>
<g>
</g>
</svg>
