<?xml version="1.0" encoding="iso-8859-1"?>
<!-- Generator: Adobe Illustrator 18.0.0, SVG Export Plug-In . SVG Version: 6.00 Build 0)  -->
<!DOCTYPE svg PUBLIC "-//W3C//DTD SVG 1.1//EN" "http://www.w3.org/Graphics/SVG/1.1/DTD/svg11.dtd">
<svg version="1.1" id="Capa_1" xmlns="http://www.w3.org/2000/svg" xmlns:xlink="http://www.w3.org/1999/xlink" x="0px" y="0px"
	 viewBox="0 0 498.542 498.542" style="enable-background:new 0 0 498.542 498.542;" xml:space="preserve">
<path id="flute-glass" style="fill:#919191;" d="M273.97,438.575c-0.014,0-0.014-0.014-0.032-0.014
	c-3.712-1.178-6.237-4.618-6.237-8.514v-39.875c0-2.098,1.002-4.062,2.705-5.303c0.293-0.212,0.621-0.428,0.947-0.589
	c28.794-15.685,75.646-53.955,75.646-137.113c0-75.712-10.068-169.721-26.471-247.167H177.899
	c-16.338,77.197-26.356,170.999-26.356,247.167c0,82.698,45.868,120.872,74.727,136.718c0.326,0.184,0.652,0.395,0.966,0.588
	c2.259,1.541,3.602,4.094,3.602,6.845v39.811c0,3.293-2.162,6.186-5.321,7.152c-25.93,7.829-44.411,26.554-44.411,36.688
	c0,13.013,30.515,23.574,68.163,23.574c37.635,0,68.15-10.561,68.15-23.574C317.419,464.95,299.391,446.583,273.97,438.575z"/>
<g>
</g>
<g>
</g>
<g>
</g>
<g>
</g>
<g>
</g>
<g>
</g>
<g>
</g>
<g>
</g>
<g>
</g>
<g>
</g>
<g>
</g>
<g>
</g>
<g>
</g>
<g>
</g>
<g>
</g>
</svg>
